<?xml version="1.0" encoding="UTF-8"?>
<svg width="127px" height="81px" viewBox="0 0 127 81" version="1.1" xmlns="http://www.w3.org/2000/svg" xmlns:xlink="http://www.w3.org/1999/xlink">
    <title>logo</title>
    <g id="Page-1" stroke="none" stroke-width="1" fill="none" fill-rule="evenodd">
        <g id="Desktop-HD" transform="translate(-167.000000, -201.000000)" fill="#E4007F">
            <g id="logo" transform="translate(167.600000, 201.000000)">
                <path d="M54.3,0 C56.7666667,0 59,0.8 61,2.4 C63,4 64,6.6 64,10.2 C64,13.5333333 63.1,16.9833333 61.3,20.55 C59.5,24.1166667 56.7833333,27.1166667 53.15,29.55 C49.5166667,31.9833333 45.1333333,33.2 40,33.2 L40,33.2 L38.4,33.2 L38.1183115,34.0500595 C35.4992073,41.9362267 33.1597701,48.4862069 31.1,53.7 C28.9666667,59.1 26.6,63.7333333 24,67.6 C24.5333333,67.8 25.1,67.9833333 25.7,68.15 C26.3,68.3166667 26.9,68.5 27.5,68.7 C33.1666667,70.4333333 37.7,71.7166667 41.1,72.55 C44.5,73.3833333 47.6333333,73.8 50.5,73.8 C53.1666667,73.8 55.5333333,73.2666667 57.6,72.2 C56.5333333,75.2 55.1333333,77.3666667 53.4,78.7 C51.6666667,80.0333333 49.5666667,80.7 47.1,80.7 C44.5,80.7 41.65,80.1333333 38.55,79 C35.45,77.8666667 31.3666667,76.1333333 26.3,73.8 L26.3,73.8 L21.1,71.4 L20.7783287,71.7521579 C17.3422712,75.4507193 13.7494949,77.3 10,77.3 C8,77.3 6.23333333,76.8333333 4.7,75.9 C3.16666667,74.9666667 2,73.8166667 1.2,72.45 C0.4,71.0833333 1.42108547e-14,69.8 1.42108547e-14,68.6 C1.42108547e-14,67.2666667 0.583333333,66.2 1.75,65.4 C2.91666667,64.6 4.76666667,64.2 7.3,64.2 C10.2333333,64.2 14.3333333,64.9 19.6,66.3 C21.2666667,63.3666667 22.8333333,59.8833333 24.3,55.85 C25.7666667,51.8166667 27.5666667,46.4 29.7,39.6 L29.7,39.6 L32.1,32 L31.6211911,31.8382271 C28.7807479,30.8443213 26.5236842,29.4315789 24.85,27.6 C23.0833333,25.6666667 22.2,23.5666667 22.2,21.3 C22.2,19.3666667 22.7833333,17.5666667 23.95,15.9 C25.1166667,14.2333333 26.6,13.4 28.4,13.4 C27.9333333,14 27.6,14.9 27.4,16.1 C27.2,17.3 27.1,18.4666667 27.1,19.6 C27.1,22.0666667 27.6166667,24.1666667 28.65,25.9 C29.6833333,27.6333333 31.0666667,28.9666667 32.8,29.9 C35.8666667,20.5 39.0666667,13.1666667 42.4,7.9 C45.7333333,2.63333333 49.7,0 54.3,0 Z M5.9,66.8 C3.7,66.8 2.6,67.4333333 2.6,68.7 C2.6,69.9666667 3.28333333,71.2333333 4.65,72.5 C6.01666667,73.7666667 7.66666667,74.4 9.6,74.4 C12.4,74.4 14.9666667,72.8666667 17.3,69.8 C12.3666667,67.8 8.56666667,66.8 5.9,66.8 Z M55,2.5 C52.2,2.5 49.6333333,4.88333333 47.3,9.65 C44.9666667,14.4166667 42.2,21.6333333 39,31.3 C42.7333333,31.3 46.1,29.9333333 49.1,27.2 C52.1,24.4666667 54.4333333,21.2166667 56.1,17.45 C57.7666667,13.6833333 58.6,10.3666667 58.6,7.5 C58.6,5.7 58.2666667,4.41666667 57.6,3.65 C56.9333333,2.88333333 56.0666667,2.5 55,2.5 Z M68.53,74.82 C69.93,74.82 71.34,74.26 72.76,73.14 C74.18,72.02 75.79,70.26 77.59,67.86 C77.47,68.5 77.41,69.08 77.41,69.6 C77.41,70.76 77.78,71.75 78.52,72.57 C79.26,73.39 80.33,73.8 81.73,73.8 C83.13,73.8 84.59,73.34 86.11,72.42 C87.63,71.5 89.05,70.21 90.37,68.55 C91.69,66.89 92.77,65 93.61,62.88 L93.61,62.88 L93.01,62.28 C91.29,65.28 89.55,67.61 87.79,69.27 C86.03,70.93 84.57,71.76 83.41,71.76 C82.73,71.76 82.22,71.49 81.88,70.95 C81.54,70.41 81.37,69.8 81.37,69.12 C81.37,68.36 81.57,67.53 81.97,66.63 C82.37,65.73 82.91,64.7 83.59,63.54 C83.67,63.42 83.9,63.01 84.28,62.31 C84.66,61.61 84.85,61.1 84.85,60.78 C84.85,60.38 84.58,60.05 84.04,59.79 C83.5,59.53 82.97,59.36 82.45,59.28 C79.97,62.92 77.65,66.01 75.49,68.55 C73.33,71.09 71.45,72.36 69.85,72.36 C68.77,72.36 68.23,71.58 68.23,70.02 C68.23,68.06 68.88,65.72 70.18,63 C71.48,60.28 73.1,57.94 75.04,55.98 C76.98,54.02 78.83,53.04 80.59,53.04 C81.59,53.04 82.33,53.35 82.81,53.97 C83.29,54.59 83.53,55.4 83.53,56.4 C83.53,57.08 83.43,57.78 83.23,58.5 C84.15,58.5 84.87,58.3 85.39,57.9 C85.91,57.5 86.17,56.84 86.17,55.92 C86.17,54.6 85.65,53.52 84.61,52.68 C83.57,51.84 82.27,51.42 80.71,51.42 C78.23,51.42 75.69,52.44 73.09,54.48 C70.49,56.52 68.34,59 66.64,61.92 C64.94,64.84 64.09,67.48 64.09,69.84 C64.09,71.44 64.5,72.67 65.32,73.53 C66.14,74.39 67.21,74.82 68.53,74.82 Z M117.87,29.16 C118.47,29.16 118.94,29.55 119.28,30.33 C119.62,31.11 119.79,31.98 119.79,32.94 C119.79,34.82 119.13,37.32 117.81,40.44 C116.49,43.56 114.77,46.56 112.65,49.44 C110.53,52.32 108.35,54.44 106.11,55.8 C105.59,56.76 104.98,58.56 104.28,61.2 C103.58,63.84 103.23,66.26 103.23,68.46 C103.23,72.22 104.33,74.1 106.53,74.1 C107.69,74.1 108.89,73.63 110.13,72.69 C111.37,71.75 112.37,70.54 113.13,69.06 C111.73,68.34 110.65,67.27 109.89,65.85 C109.13,64.43 108.75,62.92 108.75,61.32 C108.75,59.44 109.24,57.91 110.22,56.73 C111.2,55.55 112.39,54.96 113.79,54.96 C114.95,54.96 115.87,55.44 116.55,56.4 C117.23,57.36 117.57,58.72 117.57,60.48 C117.57,63.12 116.87,65.84 115.47,68.64 C115.95,68.76 116.47,68.82 117.03,68.82 C118.91,68.82 120.42,68.22 121.56,67.02 C122.7,65.82 123.75,64.24 124.71,62.28 L124.71,62.28 L125.43,63.06 L125.264044,63.4577285 C124.257839,65.8052078 123.063158,67.4526316 121.68,68.4 C120.22,69.4 118.61,69.9 116.85,69.9 C116.17,69.9 115.53,69.84 114.93,69.72 C113.73,71.72 112.33,73.33 110.73,74.55 C109.13,75.77 107.35,76.38 105.39,76.38 C103.35,76.38 101.81,75.71 100.77,74.37 C99.73,73.03 99.21,71.18 99.21,68.82 C99.21,65.02 100.41,59.94 102.81,53.58 C105.21,47.22 107.92,41.56 110.94,36.6 C113.96,31.64 116.27,29.16 117.87,29.16 Z M113.13,57.3 C112.53,57.3 112,57.72 111.54,58.56 C111.08,59.4 110.85,60.42 110.85,61.62 C110.85,62.82 111.09,64 111.57,65.16 C112.05,66.32 112.77,67.22 113.73,67.86 C114.65,65.9 115.11,63.88 115.11,61.8 C115.11,60.44 114.92,59.35 114.54,58.53 C114.16,57.71 113.69,57.3 113.13,57.3 Z M117.51,34.02 C117.07,34.02 116.14,35.04 114.72,37.08 C113.3,39.12 111.83,41.65 110.31,44.67 C108.79,47.69 107.61,50.62 106.77,53.46 C108.49,52.1 110.2,50.13 111.9,47.55 C113.6,44.97 115,42.41 116.1,39.87 C117.2,37.33 117.75,35.54 117.75,34.5 C117.75,34.18 117.67,34.02 117.51,34.02 Z" id="Lab" fill-rule="nonzero"></path>
                <path d="M87.2330916,9.84555678 L89.0334482,10.572318 C89.2558595,10.6596939 89.3885263,10.763932 89.3885263,10.9851228 C89.3885263,11.2072551 89.2239814,11.3589201 89.0543672,11.4225968 L88.8482816,11.4789232 C88.8203373,11.4861061 88.8043682,11.491091 88.7913074,11.4965439 C88.7726859,11.5043186 88.752335,11.516629 88.724341,11.5390933 L88.643803,11.6116273 L88.589,11.674 L90.5632042,11.6739023 C91.6421676,11.6694709 92.0170463,11.6417215 92.3361462,11.5273119 L92.4713784,11.4727889 L92.6964334,11.3668368 L94.0449411,12.6697869 L93.492,13.209 L93.3674898,13.5373953 C91.9970416,17.0457088 90.2657368,19.3959503 87.3048915,21.0230983 L86.9829137,21.1946885 L86.5149101,21.4271253 L84.7836843,20.143295 L85.20046,19.9774073 C87.0003978,19.2609847 88.1365609,18.5463372 89.4650336,16.9499403 C90.4561702,15.749367 90.9731569,14.7695217 91.3205874,13.6570117 L91.3978924,13.3977628 L91.471,13.126 L87.624,13.126 L87.4608805,13.3556567 C86.8352279,14.2143823 86.2376599,14.9064524 85.5100688,15.5713037 L85.1898225,15.8549801 L84.8895573,16.1063107 L84.7483833,16.2214994 L83.1378155,15.1772491 L83.4345236,14.9635487 C83.8543515,14.6611726 84.0501354,14.5094618 84.3836302,14.2037582 C84.8783572,13.7502585 85.3671159,13.204053 85.846124,12.5398245 C86.5351901,11.5572673 86.9679306,10.8284196 87.1327331,10.2688381 L87.168345,10.1324202 L87.2330916,9.84555678 Z M114.088399,9.80254387 L115.878248,10.4501285 C116.091331,10.5152373 116.293789,10.6809398 116.293789,10.9207953 C116.293789,11.174342 116.114337,11.3230872 115.844584,11.4028672 L115.739368,11.429622 L115.625,11.45 L115.258,12.034 L116.584893,12.0338816 C116.896449,12.028279 117.330472,12.001382 117.729868,11.9594448 L117.964093,11.9325277 L118.223577,11.8958851 C118.439598,11.8628818 118.631481,11.8105179 118.825514,11.7379774 L118.937246,11.6943057 L119.235445,11.567617 L120.611997,12.7953528 L120.383706,12.9804731 C120.227471,13.1071636 120.127958,13.193915 120.049492,13.2719085 L119.870822,13.466161 C119.858808,13.4778145 119.845479,13.4896697 119.82945,13.5025889 L119.533009,14.2989593 C119.138502,15.3359561 118.876831,15.9134296 118.57717,16.4410427 L118.487,16.596 L118.669677,16.723156 L119.289144,17.1847379 L119.762185,17.5506111 L118.451933,19.0342787 L118.263896,18.8394283 C118.077427,18.6462035 117.871069,18.4599774 117.62615,18.2616426 L117.414,18.095 L117.331591,18.1938934 C116.046918,19.6659914 114.612651,20.516648 112.829066,21.1301148 L112.490502,21.2424541 L111.999384,21.3928626 L110.506665,19.8785818 L110.976006,19.7961974 C112.348547,19.5552726 113.367935,19.1884371 114.718275,18.1802545 C115.125411,17.8856165 115.503406,17.5488381 115.850457,17.1731138 L115.901,17.115 L115.799204,17.059603 C115.331869,16.8102164 114.87438,16.5816578 114.386178,16.3596698 L113.886237,16.1393439 L113.142106,15.8327351 L114.179426,14.6346304 L114.335646,14.6832649 C114.778322,14.8210792 115.702657,15.1884651 116.405555,15.4866997 L116.795096,15.6549526 L116.912,15.707 L116.976394,15.6002742 C117.25951,15.0992148 117.492944,14.5522056 117.683611,13.9554312 L117.792935,13.5913643 L117.81,13.525 L114.259,13.525 L114.128927,13.6985184 C113.263213,14.8370795 112.745588,15.383961 111.930418,16.0107261 L111.736726,16.1570879 L111.402002,16.401262 L109.515973,15.3567424 L109.917883,15.1394705 C110.967792,14.5718915 111.706066,13.9855363 112.672587,12.68679 C113.124597,12.0901357 113.577891,11.3536871 113.833455,10.7360786 C113.910769,10.5470898 113.95411,10.4166876 113.992553,10.257677 L114.03044,10.0859009 L114.088399,9.80254387 Z M78.8983495,10.629948 L80.3069689,12.0607754 L79.868895,12.3376949 L79.426,12.638 L78.7424983,13.8235185 C78.2921021,14.5899605 77.9756095,15.0856797 77.6395977,15.5482767 L77.52,15.709 L77.5911247,15.7552077 C78.9718828,16.6855388 80.2627824,17.8941531 81.0160637,18.7951609 L81.1690891,18.9833122 L81.3046777,19.1607659 L81.4459839,19.3524713 L79.9131581,20.6014405 L79.7598601,20.3759857 C78.8367263,19.0183365 77.6299663,17.8920778 76.5129484,17.1077374 L76.406,17.035 L76.2473579,17.1990758 C74.9163294,18.535563 73.608774,19.4066909 72.028832,20.1536918 L71.6592601,20.3240286 L71.1164497,20.5607271 L69.6786242,18.9966925 L70.0522325,18.8778749 C71.3781836,18.4561864 72.4176793,17.9889892 73.6292819,17.1004806 C75.0502759,16.0584183 76.1818551,14.6615351 77.0129859,12.9942939 L77.195,12.611 L75.082386,12.611731 C74.0198819,12.611731 73.0422635,12.638469 72.2615833,12.6993768 L71.9782785,12.7238335 L71.4358947,12.7839828 L71.4358947,10.9442959 L71.7073002,10.9676198 C72.1157158,11.002718 73.6269097,11.0605879 74.2977408,11.068676 L77.052614,11.0672633 C77.5567385,11.0625212 77.8209531,11.0507425 77.9932771,11.0310117 L78.0961707,11.0166697 L78.2487099,10.9892083 C78.3744135,10.9586998 78.4978668,10.9032227 78.6125291,10.8328101 L78.7240187,10.7577906 L78.8983495,10.629948 Z M105.214139,10.629948 L106.622758,12.0607754 L106.184684,12.3376949 L105.74,12.639 L105.31816,13.3771827 C104.722334,14.408604 104.352492,15.0015711 103.955387,15.5482767 L103.836,15.709 L103.906914,15.7552077 C105.287672,16.6855388 106.578572,17.8941531 107.331853,18.7951609 L107.484879,18.9833122 L107.620467,19.1607659 L107.761773,19.3524713 L106.228948,20.6014405 L106.07565,20.3759857 C105.152516,19.0183365 103.945756,17.8920778 102.828738,17.1077374 L102.722,17.035 L102.563147,17.1990758 C101.232119,18.535563 99.9245634,19.4066909 98.3446215,20.1536918 L97.9750496,20.3240286 L97.4322391,20.5607271 L95.9944137,18.9966925 L96.368022,18.8778749 C97.693973,18.4561864 98.7334688,17.9889892 99.9450714,17.1004806 C101.366065,16.0584183 102.497645,14.6615351 103.328775,12.9942939 L103.511,12.611 L101.398175,12.611731 C100.335671,12.611731 99.3580529,12.638469 98.5773727,12.6993768 L98.294068,12.7238335 L97.7516842,12.7839828 L97.7516842,10.9442959 L98.0230897,10.9676198 C98.4315053,11.002718 99.9426992,11.0605879 100.61353,11.068676 L103.368403,11.0672633 C103.872528,11.0625212 104.136743,11.0507425 104.309067,11.0310117 L104.41196,11.0166697 L104.564499,10.9892083 C104.690203,10.9586998 104.813656,10.9032227 104.928319,10.8328101 L105.039808,10.7577906 L105.214139,10.629948 Z" id="スクスタ" fill-rule="nonzero"></path>
                <path d="M45.755968,74.4 C56.042287,73.1196479 62.4656094,71.2196479 65.0259352,68.7 C68.8664239,64.9205282 58.2484616,81.6642803 45.755968,80.7 C37.4276389,80.0571465 37.4276389,77.9571465 45.755968,74.4 Z" id="Path-3"></path>
                <path d="M106.662994,52.9715844 L106.877006,53.9484156 C100.95256,55.2463853 96.2943781,58.6620072 92.880984,64.2193178 L92.6334447,64.6297728 L91.7729897,64.1202465 C95.2626684,58.2271034 100.086332,54.5364535 106.222467,53.0723745 L106.662994,52.9715844 Z" id="Path-4" fill-rule="nonzero"></path>
                <path d="M21.1,71.4 C27.4119717,67.8184272 32.3231915,60.693034 35.8336593,50.0238204 C41.0993611,34.02 50.9425822,-2.22896211 59.8177651,5.86311641 C68.6929479,13.9551949 57.6994678,-5.35869512 49.7880359,3.85540127 C41.8766039,13.0694977 36.5919375,36.06 33.299011,43.74 C31.1037266,48.86 27.0373896,58.08 21.1,71.4 Z" id="Path-5"></path>
            </g>
        </g>
    </g>
</svg>